<?xml version="1.0" standalone="no"?>
<!DOCTYPE svg PUBLIC "-//W3C//DTD SVG 20010904//EN"
 "http://www.w3.org/TR/2001/REC-SVG-20010904/DTD/svg10.dtd">
<svg version="1.0" xmlns="http://www.w3.org/2000/svg"
 width="460.000000pt" height="280.000000pt" viewBox="0 0 460.000000 280.000000"
 preserveAspectRatio="xMidYMid meet">

<g transform="translate(0.000000,280.000000) scale(0.100000,-0.100000)"
fill="#000000" stroke="none">
<path d="M0 1400 l0 -1400 357 0 c263 1 361 4 372 13 12 9 13 9 7 0 -5 -10 11
-13 69 -13 62 0 76 3 72 14 -3 8 2 16 14 19 14 4 19 0 19 -14 0 -36 27 -19 46
28 11 27 21 52 23 58 2 5 -3 4 -12 -4 -10 -7 -17 -10 -17 -5 0 5 -7 0 -15 -10
-8 -11 -15 -14 -15 -7 0 19 20 52 28 47 4 -3 9 6 10 20 1 18 -3 24 -17 24 -36
0 -37 97 -2 123 25 17 36 51 15 43 -8 -3 -19 -6 -24 -6 -10 0 -25 -40 -21 -54
4 -16 -33 -76 -44 -72 -5 2 -9 9 -7 15 3 17 -16 13 -27 -6 -6 -10 -11 -13 -11
-7 0 6 9 19 19 28 26 23 34 56 14 56 -11 0 -13 6 -8 23 15 49 17 67 7 67 -6 0
-14 -4 -17 -10 -3 -5 -12 -10 -18 -10 -7 0 -4 7 6 14 10 8 15 20 11 30 -3 9
-1 16 5 16 24 0 9 32 -20 42 l-32 11 29 15 c37 20 54 23 54 10 0 -7 5 -7 13 1
8 6 17 7 22 3 4 -4 5 0 1 8 -3 8 -9 23 -12 33 -8 20 -24 23 -24 3 0 -9 -7 -12
-20 -9 -22 6 -26 18 -10 28 5 3 10 10 10 15 0 13 -26 19 -41 8 -11 -8 -10 -9
4 -4 12 4 17 2 15 -6 -6 -18 -46 -22 -64 -7 -11 9 -11 15 -3 25 6 8 9 22 6 33
-3 15 4 21 34 30 37 11 62 31 39 31 -6 0 -4 10 6 25 8 13 12 29 8 36 -4 8 -13
0 -25 -22 -9 -19 -15 -38 -12 -43 4 -5 1 -6 -5 -2 -7 4 -12 2 -12 -5 0 -7 -2
-10 -5 -7 -3 3 4 22 16 42 12 20 18 40 14 44 -6 7 -15 -2 -42 -45 -8 -13 -8
-7 1 19 7 21 15 41 19 44 12 12 8 24 -9 24 -14 0 -15 2 -3 17 13 15 12 15 -8
5 -32 -17 -39 -15 -19 7 11 12 13 20 6 23 -16 5 -1 38 17 38 23 0 4 20 -20 21
-12 0 -16 3 -10 6 7 2 13 11 13 19 0 8 5 14 12 14 6 0 8 3 4 7 -11 11 -66 12
-66 2 0 -5 -5 -9 -10 -9 -6 0 -6 7 2 19 6 10 18 17 25 14 20 -8 15 7 -9 30
-16 13 -19 21 -10 24 7 3 19 11 26 19 8 8 19 14 25 14 13 0 2 62 -13 72 -8 5
-7 11 2 20 9 9 12 9 12 -3 1 -10 5 -9 15 5 10 14 12 22 4 27 -8 4 -7 13 3 29
12 22 30 40 106 106 59 52 25 63 -39 12 -21 -17 -42 -28 -46 -25 -3 4 -1 7 6
7 6 0 11 8 9 18 -2 9 3 16 10 15 6 -2 12 2 12 7 0 6 -7 10 -15 10 -22 0 -19
13 11 45 19 20 22 30 13 35 -15 10 37 59 64 60 24 0 21 20 -4 20 -11 0 -17 5
-14 10 3 6 -1 10 -9 10 -24 0 -19 18 10 45 l27 25 -54 1 -54 1 35 15 c19 8 49
16 67 16 22 1 29 4 23 12 -10 12 10 34 49 55 35 18 24 31 -21 25 l-43 -6 59
26 c33 14 67 25 77 25 10 0 21 4 24 10 4 6 -7 8 -27 4 -51 -9 -241 -55 -263
-64 -11 -5 -27 -9 -35 -9 -42 -2 -90 -14 -90 -22 0 -10 -34 -12 -67 -3 -31 8
-29 24 3 24 14 0 23 4 19 10 -4 6 5 10 19 10 14 0 26 4 26 9 0 6 16 7 35 4 28
-4 35 -2 35 11 0 11 9 16 29 16 16 0 53 11 82 24 30 12 65 22 79 21 29 -2 80
13 80 25 0 4 -7 26 -15 49 -8 23 -19 90 -25 149 -6 59 -14 117 -17 130 -3 12
-2 44 2 70 8 47 8 47 17 17 5 -16 11 -50 13 -75 2 -25 9 -79 15 -120 6 -41 13
-108 17 -147 5 -68 7 -73 29 -73 20 0 22 3 15 23 -19 48 -35 134 -33 172 5 71
-39 353 -56 360 -12 5 -14 -3 -8 -50 6 -54 -1 -68 -22 -42 -6 6 -16 58 -23
115 -14 115 -9 127 54 153 18 7 36 19 40 26 5 7 12 11 17 8 4 -3 11 7 14 21 6
21 -1 34 -31 67 -21 23 -45 51 -53 62 -13 18 -28 20 -128 22 l-113 2 25 -20
c24 -19 32 -41 40 -114 6 -50 18 -85 27 -79 5 3 9 -2 9 -10 0 -9 6 -16 14 -16
19 0 53 -53 38 -58 -7 -2 -12 -11 -12 -19 0 -9 6 -13 15 -9 10 4 15 -1 15 -14
0 -14 -5 -18 -16 -13 -14 5 -15 0 -10 -33 3 -21 10 -104 16 -184 6 -80 15
-161 22 -182 11 -39 3 -152 -12 -143 -4 3 -13 -2 -20 -11 -16 -19 -30 -2 -30
38 0 15 -4 30 -10 33 -5 3 -9 21 -8 39 1 18 -2 37 -5 43 -5 8 -30 234 -51 459
-6 69 -41 109 -72 83 -18 -15 -18 -35 1 -43 20 -7 19 -26 -1 -26 -12 0 -14 -7
-10 -27 4 -23 18 -198 29 -365 1 -21 -2 -40 -8 -43 -6 -3 -6 -7 2 -11 15 -7 5
-34 -13 -34 -8 0 -13 3 -12 8 1 4 -2 18 -5 32 -4 14 -18 138 -32 275 l-25 250
-30 28 c-25 22 -34 25 -50 17 -27 -14 -25 -26 8 -55 l27 -24 -27 -1 c-35 0
-35 -10 -2 -39 l26 -23 -5 -146 c-4 -81 -7 -169 -7 -197 -1 -27 -4 -44 -7 -37
-2 6 -11 12 -19 12 -8 0 -11 6 -7 17 5 12 2 15 -9 11 -12 -5 -17 5 -21 50 -44
409 -48 436 -67 467 -28 46 -63 62 -96 44 -22 -11 -25 -18 -21 -46 3 -18 2
-35 -2 -38 -5 -2 -12 31 -15 75 -6 68 -10 80 -26 80 -17 0 -30 -27 -29 -60 0
-10 3 -8 9 5 5 13 8 -9 7 -60 -1 -44 2 -142 6 -217 7 -130 2 -161 -19 -126 -5
8 -10 6 -15 -8 -7 -18 -8 -18 -8 0 -1 14 -4 16 -14 7 -15 -12 -27 -5 -27 15 0
7 -5 25 -12 41 -6 15 -13 35 -14 43 -2 8 -7 35 -13 60 -5 25 -14 86 -21 135
-6 50 -13 107 -16 128 l-6 37 -54 0 -54 0 0 -1400z m958 1341 c4 -11 -2 -13
-26 -8 -24 5 -31 2 -35 -13 -3 -12 -14 -20 -26 -20 -12 0 -21 -4 -21 -10 0 -5
-8 -10 -17 -9 -10 0 -13 3 -7 5 7 3 10 13 7 23 -8 30 33 51 91 48 16 -1 32 -8
34 -16z m79 -93 c-3 -8 -6 -5 -6 6 -1 11 2 17 5 13 3 -3 4 -12 1 -19z m-147
-33 c0 -8 -4 -15 -10 -15 -5 0 -10 7 -10 15 0 8 5 15 10 15 6 0 10 -7 10 -15z
m-563 -52 c-3 -10 -5 -2 -5 17 0 19 2 27 5 18 2 -10 2 -26 0 -35z m10 -75 c-3
-8 -6 -5 -6 6 -1 11 2 17 5 13 3 -3 4 -12 1 -19z m17 -133 c3 -8 1 -15 -4 -15
-6 0 -10 7 -10 15 0 8 2 15 4 15 2 0 6 -7 10 -15z m226 -325 c0 -5 13 -10 29
-10 36 0 41 -12 41 -106 0 -64 -2 -74 -17 -75 -18 -1 -34 -3 -62 -10 -18 -5
-33 54 -25 94 3 16 1 27 -5 27 -6 0 -11 19 -11 45 0 41 2 45 25 45 14 0 25 -4
25 -10z m-287 -22 c2 -7 1 -22 -4 -33 -4 -11 -8 -37 -8 -57 -1 -35 1 -37 27
-34 27 4 27 3 24 -45 -3 -34 -8 -49 -18 -49 -8 0 -14 7 -14 15 0 9 -6 18 -14
21 -8 3 -12 12 -9 20 3 8 0 14 -6 14 -6 0 -11 -4 -11 -10 0 -5 -9 -14 -20 -20
-16 -9 -20 -8 -20 6 0 10 5 14 15 10 8 -3 15 -1 15 4 0 6 -5 10 -11 10 -5 0
-7 5 -4 10 3 6 1 10 -4 10 -21 0 -10 35 20 65 18 17 25 31 18 34 -8 2 -7 6 2
12 11 7 11 9 1 9 -7 0 -10 5 -7 10 9 14 22 13 28 -2z m36 -15 c0 -25 -1 -26
-9 -8 -12 27 -12 35 0 35 6 0 10 -12 9 -27z m446 -418 c-16 -8 -46 -14 -65
-14 l-35 1 35 13 c19 7 49 13 65 13 l30 0 -30 -13z m-190 -68 c-26 -18 -83
-37 -109 -37 -18 0 -16 3 10 19 31 19 58 27 99 30 19 1 19 1 0 -12z m-268
-113 c-3 -3 -12 -4 -19 -1 -8 3 -5 6 6 6 11 1 17 -2 13 -5z m423 -662 c0 -11
-22 -32 -32 -32 -5 0 -4 9 2 20 11 20 30 28 30 12z m-32 -287 c-12 -14 -23
-25 -25 -25 -9 0 -1 20 13 34 25 26 36 18 12 -9z m58 -24 c-14 -26 -46 -50
-46 -34 0 7 51 63 57 63 2 0 -3 -13 -11 -29z m-36 9 c0 -5 -5 -10 -11 -10 -5
0 -7 5 -4 10 3 6 8 10 11 10 2 0 4 -4 4 -10z m80 -21 c-7 -11 -14 -18 -17 -15
-8 8 5 36 17 36 7 0 7 -6 0 -21z m-20 -40 c0 -5 -4 -9 -10 -9 -5 0 -10 7 -10
16 0 8 5 12 10 9 6 -3 10 -10 10 -16z m20 -58 c-11 -22 -24 -42 -30 -46 -16
-10 -11 8 10 35 11 14 20 31 20 38 0 6 5 12 10 12 6 0 1 -18 -10 -39z m-100
-62 c0 -5 -7 -9 -15 -9 -15 0 -20 12 -9 23 8 8 24 -1 24 -14z m-20 -23 c0 -2
-9 -6 -20 -9 -11 -3 -18 -1 -14 4 5 9 34 13 34 5z m169 -91 c-27 -46 -48 -58
-23 -14 16 29 32 48 41 49 1 0 -7 -16 -18 -35z m-23 13 c4 -7 3 -10 -1 -5 -10
8 -35 -45 -35 -74 0 -13 -5 -16 -16 -12 -18 7 -12 43 14 79 19 27 28 29 38 12z
m24 -98 c0 -5 -4 -10 -10 -10 -5 0 -10 5 -10 10 0 6 5 10 10 10 6 0 10 -4 10
-10z"/>
<path d="M2683 2770 c-18 -16 -29 -31 -25 -34 5 -3 15 4 22 15 8 10 19 19 25
19 6 0 20 7 31 15 19 14 19 14 -1 14 -11 0 -34 -13 -52 -29z"/>
<path d="M2834 2784 c4 -9 2 -22 -4 -29 -11 -13 -9 -49 3 -62 4 -4 5 -34 2
-67 -11 -117 -13 -123 -43 -132 -34 -9 -51 -6 -69 12 -12 12 -20 11 -53 -6
-49 -25 -56 -25 -63 -1 -4 16 -11 19 -47 14 l-41 -6 3 39 c3 37 5 39 38 42 47
4 55 15 51 64 -2 34 2 45 21 60 22 19 22 19 1 13 -12 -3 -24 -1 -28 5 -3 5
-15 10 -27 10 -17 0 -18 -3 -9 -14 7 -8 11 -30 9 -48 -2 -28 -7 -34 -30 -36
-16 -2 -28 -9 -28 -18 0 -8 -4 -14 -10 -14 -6 0 -10 26 -10 59 0 33 -4 62 -9
65 -12 8 -23 -43 -20 -96 1 -24 -1 -62 -5 -85 -7 -40 -9 -41 -55 -48 -71 -10
-79 -18 -47 -48 25 -24 26 -27 20 -97 -6 -64 -9 -71 -21 -55 -14 20 -14 20
-16 -42 -1 -30 -4 -33 -32 -33 -29 0 -32 2 -30 32 1 18 -1 44 -6 58 -6 19 -7
21 -8 6 -1 -16 -4 -17 -13 -8 -7 7 -27 12 -45 12 -26 0 -33 -4 -33 -19 0 -10
-7 -21 -15 -25 -8 -3 -15 -12 -15 -20 0 -15 29 -26 73 -26 22 0 28 -4 25 -17
-2 -10 -10 -18 -18 -19 -39 -3 -41 -4 -31 -22 6 -11 6 -24 1 -33 -5 -7 -7 -22
-4 -31 7 -25 -5 -60 -18 -52 -8 5 -9 1 -3 -12 4 -10 10 -29 12 -42 8 -32 -23
-18 -32 15 -3 14 -13 32 -21 40 -13 14 -14 12 -8 -13 3 -16 13 -39 20 -51 16
-25 18 -43 6 -43 -5 0 -16 18 -25 40 -10 27 -23 41 -41 46 -37 9 -53 0 -58
-35 -6 -38 -3 -41 36 -42 17 0 40 -4 51 -9 15 -7 9 -9 -26 -9 -30 -1 -49 -6
-52 -15 -6 -16 -60 -13 -65 3 -5 14 -32 14 -32 1 0 -5 4 -10 9 -10 5 0 11 -9
14 -20 3 -13 0 -20 -9 -20 -24 0 -15 -30 12 -40 48 -19 13 -30 -91 -30 -103 0
-105 0 -111 -25 -5 -20 -12 -25 -36 -25 l-31 0 6 -62 c3 -34 10 -64 16 -66 6
-2 11 -10 11 -18 0 -8 6 -14 14 -14 7 0 16 -14 20 -31 7 -38 72 -105 111 -115
21 -5 40 -1 66 13 l37 20 7 -61 c4 -33 11 -72 16 -85 5 -12 12 -60 15 -105 3
-44 8 -118 11 -163 l6 -82 35 5 c19 3 45 10 58 14 12 5 25 6 28 2 4 -3 15 -6
25 -7 16 -1 18 8 20 69 2 71 24 140 52 163 18 15 69 5 69 -14 0 -8 -4 -11 -10
-8 -5 3 -10 1 -10 -4 0 -6 3 -11 8 -11 9 0 32 -49 32 -69 0 -9 7 -25 15 -35 8
-10 11 -24 8 -30 -4 -6 0 -5 9 2 13 10 17 10 21 -2 3 -7 2 -18 -1 -22 -4 -5 0
-1 10 8 9 10 21 18 27 18 7 0 11 36 11 106 0 105 0 105 23 98 12 -5 34 -7 50
-6 15 0 27 -3 27 -8 0 -6 -7 -10 -15 -10 -8 0 -15 -9 -15 -20 0 -11 6 -20 14
-20 17 0 22 -120 5 -153 -9 -19 -7 -18 13 5 12 14 33 29 46 33 22 6 31 25 12
25 -17 0 -11 18 16 46 l27 26 27 -44 c25 -39 26 -61 2 -64 -4 0 -25 -5 -46
-12 -22 -6 -44 -8 -49 -5 -6 3 -7 1 -3 -5 7 -11 -38 -38 -56 -34 -5 1 -8 -2
-8 -7 0 -15 -47 -24 -190 -36 -36 -3 -79 -9 -95 -13 -17 -5 -41 -8 -55 -7 -14
2 -29 -1 -35 -5 -16 -11 -134 -19 -141 -9 -3 5 0 9 5 9 6 0 11 4 11 9 0 19
-30 19 -79 0 -28 -10 -59 -19 -68 -19 -9 0 -25 -7 -35 -17 -10 -9 -39 -20 -66
-24 -102 -18 -286 -41 -342 -43 -51 -2 -65 -31 -32 -64 19 -19 39 -94 48 -182
3 -30 10 -91 15 -135 14 -116 16 -146 7 -151 -10 -7 -10 -54 0 -54 4 0 13 -13
19 -30 l11 -30 168 0 c145 0 165 -2 149 -14 -14 -10 -24 -11 -36 -3 -23 14
-47 2 -59 -28 -15 -41 -12 -61 15 -93 14 -17 28 -44 31 -61 7 -34 29 -40 65
-18 17 9 23 9 26 0 4 -10 215 -13 1013 -13 797 0 1009 3 1013 13 4 9 6 9 6 0
1 -10 80 -13 361 -13 l360 0 0 1400 0 1400 -298 0 -298 0 -1 -22 c-5 -68 -16
-128 -24 -134 -6 -3 -16 1 -22 10 -10 13 -18 15 -42 7 -17 -5 -42 -12 -56 -15
-14 -3 -38 -17 -54 -32 l-28 -26 7 69 c4 37 9 85 13 106 l6 37 -488 0 c-446 0
-487 -1 -481 -16z m523 -269 c-10 -140 -30 -270 -44 -278 -7 -4 -13 -23 -13
-42 0 -53 -9 -65 -45 -65 l-33 0 3 73 c10 247 54 457 91 443 7 -3 17 0 21 7
12 19 24 -71 20 -138z m-847 35 c0 -16 -4 -30 -10 -30 -5 0 -10 14 -10 30 0
17 5 30 10 30 6 0 10 -13 10 -30z m56 -50 c31 0 34 -3 34 -30 0 -28 -3 -30
-34 -30 -19 0 -38 -4 -41 -10 -3 -5 -16 -15 -27 -21 -17 -9 -20 -9 -15 4 3 8
2 18 -2 23 -13 14 -22 60 -13 68 4 4 20 5 36 2 16 -3 44 -6 62 -6z m444 -203
c-7 -53 -16 -100 -21 -103 -5 -3 -9 -21 -9 -40 0 -29 -3 -34 -23 -34 -22 0
-23 3 -20 63 4 73 22 243 30 273 2 12 14 26 26 31 21 10 22 7 25 -41 2 -28 -2
-95 -8 -149z m-569 110 c6 -22 4 -27 -12 -27 -13 0 -19 -7 -19 -24 0 -14 5
-28 11 -31 6 -4 8 -24 5 -49 -3 -22 -5 -65 -5 -93 -1 -29 -5 -53 -11 -53 -10
0 -12 273 -3 298 8 20 26 9 34 -21z m179 -7 c0 -22 -4 -40 -10 -40 -11 0 -13
39 -4 64 10 26 14 19 14 -24z m-63 -82 c-3 -7 -5 -2 -5 12 0 14 2 19 5 13 2
-7 2 -19 0 -25z m-333 -6 c-6 -4 -14 -14 -17 -22 -4 -10 -6 -8 -6 8 -1 15 5
22 17 22 10 0 13 -3 6 -8z m266 -6 c0 -8 9 -21 20 -29 16 -11 19 -21 14 -41
-8 -32 -25 -35 -21 -4 1 17 -4 24 -23 28 -25 5 -31 24 -17 48 11 16 27 15 27
-2z m115 -15 c3 -5 1 -12 -5 -16 -5 -3 -10 1 -10 9 0 18 6 21 15 7z m-335 -23
c0 -16 -3 -19 -11 -11 -6 6 -8 16 -5 22 11 17 16 13 16 -11z m1533 -15 c6 17
37 23 50 10 4 -3 2 -12 -4 -19 -8 -9 -5 -11 10 -7 12 3 21 10 21 17 0 6 5 3
11 -7 7 -11 8 -37 4 -63 -6 -43 -7 -44 -43 -45 -20 0 -45 -2 -56 -4 -38 -7
-49 5 -43 50 4 23 12 55 19 70 l13 28 5 -24 c5 -20 7 -21 13 -6z m-1287 -100
c-3 -4 -7 0 -7 8 -1 8 -5 1 -9 -16 -7 -28 -8 -26 -9 15 -1 43 -1 44 15 22 9
-13 13 -26 10 -29z m-181 17 c3 -5 1 -11 -4 -14 -5 -4 -8 -24 -6 -47 3 -24 1
-37 -5 -34 -6 3 -10 19 -10 36 0 27 -3 29 -35 29 -27 0 -35 4 -35 18 0 15 8
19 45 19 25 1 47 -3 50 -7z m-79 -76 c-4 -9 -9 -15 -11 -12 -3 3 -3 13 1 22 4
9 9 15 11 12 3 -3 3 -13 -1 -22z m496 -29 c-2 -14 -8 -25 -12 -25 -4 0 -5 11
-2 25 2 14 8 25 12 25 4 0 5 -11 2 -25z m1138 -60 c0 -18 -7 -25 -27 -28 -16
-3 -7 -4 20 -3 36 2 47 -1 47 -12 0 -8 7 -20 16 -27 28 -20 11 -57 -36 -77
-22 -10 -49 -18 -61 -18 -20 0 -21 5 -18 83 3 89 7 102 38 104 16 1 21 -4 21
-22z m-1392 -56 c-3 -8 -7 -3 -11 10 -4 17 -3 21 5 13 5 -5 8 -16 6 -23z
m-336 -51 c35 -35 13 -51 -64 -47 -24 1 -53 -1 -65 -5 -27 -9 -30 2 -5 20 14
11 15 15 3 23 -11 7 -10 11 5 20 29 17 105 10 126 -11z m167 -45 c0 -31 -2
-34 -9 -18 -12 28 -12 55 0 55 6 0 10 -17 9 -37z m-289 -26 c0 -2 -12 -14 -27
-28 -24 -22 -24 -13 0 19 8 11 27 17 27 9z m73 -4 c-7 -2 -21 -2 -30 0 -10 3
-4 5 12 5 17 0 24 -2 18 -5z m-193 -17 c0 -9 -30 -14 -35 -6 -4 6 3 10 14 10
12 0 21 -2 21 -4z m-60 -10 c0 -2 -7 -7 -16 -10 -8 -3 -12 -2 -9 4 6 10 25 14
25 6z m210 -3 c-14 -3 -35 -14 -47 -26 -26 -24 -31 -13 -6 15 10 11 28 17 47
17 27 -2 28 -2 6 -6z m292 -45 c-9 -9 -12 -4 -11 23 0 32 1 33 11 11 8 -17 8
-26 0 -34z m48 1 c0 -24 -4 -38 -10 -34 -5 3 -10 24 -10 46 0 24 4 38 10 34 6
-3 10 -24 10 -46z m64 20 c11 -57 7 -99 -9 -99 -20 0 -35 40 -35 91 0 31 4 39
19 39 13 0 20 -10 25 -31z m56 -54 c0 -73 -11 -98 -24 -52 -8 30 -8 112 1 120
17 18 23 1 23 -68z m1124 62 c1 -1 11 -23 23 -49 20 -43 21 -47 6 -60 -15 -11
-16 -11 -10 4 3 10 3 17 -1 17 -21 -3 -30 5 -46 41 -10 22 -24 40 -32 40 -19
0 -91 -36 -99 -50 -3 -5 -11 -10 -17 -10 -21 0 14 29 65 55 36 18 61 24 81 20
16 -3 30 -6 30 -8z m-1035 -8 l31 -11 0 -92 c0 -90 -1 -92 -28 -108 -26 -16
-28 -16 -28 2 0 11 5 16 14 12 11 -4 13 1 7 19 -4 13 -13 27 -19 31 -6 5 -7 8
-1 8 6 0 4 4 -4 9 -16 10 -29 141 -14 141 6 0 24 -5 42 -11z m-416 -6 c-13 -2
-33 -2 -45 0 -13 2 -3 4 22 4 25 0 35 -2 23 -4z m-105 -10 c-26 -3 -45 -13
-63 -34 -27 -33 -32 -31 -14 4 17 31 29 37 74 35 l40 -1 -37 -4z m197 -23 c3
-5 -1 -10 -10 -10 -9 0 -13 5 -10 10 3 6 8 10 10 10 2 0 7 -4 10 -10z m433 -2
c-3 -7 6 -22 19 -34 12 -11 25 -37 28 -56 5 -33 4 -36 -22 -41 -71 -14 -66
-19 -64 58 2 64 11 84 34 85 5 0 7 -5 5 -12z m-468 -14 c0 -2 -21 -3 -47 -3
-46 2 -47 2 -13 8 33 7 60 4 60 -5z m-110 -4 c0 -5 -10 -10 -23 -10 -32 0 -67
-27 -83 -64 -7 -17 -13 -25 -14 -18 -1 34 30 82 57 88 15 3 33 7 38 9 19 6 25
5 25 -5z m189 -37 c12 3 24 1 27 -4 3 -5 -1 -9 -8 -9 -45 -1 -218 -29 -235
-38 -31 -17 -45 -39 -59 -90 -12 -43 -13 -44 -13 -14 -1 38 19 91 41 110 8 6
53 17 99 23 46 7 91 18 98 25 11 10 17 11 22 2 4 -6 16 -8 28 -5z m71 7 c0 -5
-5 -10 -11 -10 -5 0 -7 5 -4 10 3 6 8 10 11 10 2 0 4 -4 4 -10z m1070 5 c0
-10 -89 -58 -114 -62 -36 -6 -34 -3 21 34 34 22 93 40 93 28z m-1010 -40 c0
-2 -9 -9 -19 -14 -14 -8 -22 -7 -31 4 -11 13 -8 15 19 15 17 0 31 -2 31 -5z
m483 -52 c21 -20 82 -19 182 1 95 20 188 29 181 17 -6 -9 -21 -12 -151 -31
-38 -6 -90 -14 -114 -19 -24 -5 -56 -5 -70 -1 -46 13 -112 50 -106 60 7 11 53
-5 78 -27z m-1148 7 c9 -29 63 -70 94 -70 14 0 36 7 48 15 18 13 22 13 27 0 7
-20 -40 -55 -76 -55 -57 0 -118 57 -118 109 0 26 17 27 25 1z m68 8 c43 -21
48 -62 7 -51 -29 8 -66 63 -42 63 4 0 20 -6 35 -12z m387 -13 c0 -8 -4 -15
-10 -15 -5 0 -7 7 -4 15 4 8 8 15 10 15 2 0 4 -7 4 -15z m151 -25 c18 0 29 5
29 14 0 11 8 12 36 6 38 -9 57 -20 33 -20 -70 -1 -315 -42 -341 -57 -41 -24
-70 -81 -78 -157 -6 -48 -7 -35 -7 64 0 69 4 131 10 138 14 18 67 16 67 -3 0
-8 5 -15 10 -15 6 0 10 3 10 8 0 4 23 7 50 8 37 1 55 6 65 20 15 18 15 18 29
1 14 -18 15 -18 33 2 15 18 19 19 21 6 2 -9 14 -15 33 -15z m1342 -7 c8 -16
18 -39 22 -53 6 -22 4 -22 -13 6 -21 33 -37 74 -28 74 3 0 12 -12 19 -27z
m-865 -34 c25 -14 29 -19 12 -14 -14 4 -35 9 -47 12 -13 3 -23 9 -23 14 0 14
17 11 58 -12z m-312 2 c-3 -4 -19 -14 -36 -21 -25 -10 -33 -10 -43 0 -10 10
-8 12 9 8 12 -3 32 1 45 8 29 16 32 17 25 5z m175 -11 c10 -6 19 -15 19 -21 0
-5 -13 -3 -30 6 -16 9 -30 18 -30 20 0 8 20 6 41 -5z m-265 -17 c7 -10 14 -26
14 -35 0 -10 9 -23 20 -30 11 -7 20 -18 20 -25 0 -17 35 -17 52 0 16 15 91 22
112 10 10 -6 -55 -21 -192 -46 -245 -45 -264 -54 -311 -149 -17 -35 -35 -83
-40 -108 l-9 -45 -1 50 c0 28 4 67 8 89 15 62 -9 27 -30 -46 l-19 -63 3 150
c2 109 6 158 17 180 16 32 50 47 50 22 0 -8 10 -22 23 -31 15 -11 18 -18 10
-22 -16 -7 -2 -22 40 -44 25 -12 29 -12 37 0 5 8 7 25 3 37 -4 17 -1 23 11 23
11 0 16 -9 16 -29 0 -28 1 -29 43 -24 23 4 44 9 47 12 3 3 27 7 54 9 27 1 52
4 54 7 2 2 -14 23 -37 47 -42 45 -53 78 -25 78 9 0 23 -8 30 -17z m-227 -65
c0 -31 -3 -37 -8 -24 -7 18 -3 66 5 66 2 0 4 -19 3 -42z m57 26 c-3 -9 -6 -20
-6 -25 0 -5 -4 -9 -10 -9 -5 0 -10 11 -10 25 0 16 6 25 16 25 11 0 14 -5 10
-16z m84 -8 c0 -15 -7 -26 -20 -29 -23 -6 -27 16 -7 38 18 21 27 18 27 -9z
m240 -6 c0 -5 -9 -10 -20 -10 -11 0 -20 5 -20 10 0 6 9 10 20 10 11 0 20 -4
20 -10z m-174 -48 c-9 -8 -26 10 -26 26 1 15 2 15 15 -2 8 -11 13 -21 11 -24z
m223 -97 c56 -42 61 -58 13 -49 -35 7 -36 6 -22 -12 8 -10 -4 -3 -25 16 -22
19 -44 38 -49 42 -15 11 1 35 22 34 11 0 39 -14 61 -31z m-299 -106 c0 -54 -4
-88 -9 -84 -6 3 -8 19 -6 35 2 16 -1 32 -6 35 -5 4 -9 28 -9 56 0 37 4 49 15
49 12 0 15 -17 15 -91z m927 49 c-3 -8 -6 -5 -6 6 -1 11 2 17 5 13 3 -3 4 -12
1 -19z m-567 -45 l0 -38 -23 25 -23 25 20 11 c12 7 22 12 24 13 1 1 2 -16 2
-36z m490 27 c0 -5 -4 -10 -10 -10 -5 0 -10 5 -10 10 0 6 5 10 10 10 6 0 10
-4 10 -10z m-269 -71 c-16 -13 -33 -18 -48 -14 -16 4 -25 1 -29 -10 -8 -21
-25 -19 -17 3 3 10 -7 4 -27 -15 -18 -19 -42 -32 -54 -32 l-21 2 22 4 c12 2
24 11 27 19 5 13 0 14 -27 9 -41 -9 -57 -22 -50 -41 3 -8 -1 -14 -11 -14 -20
0 -20 0 0 38 10 21 23 32 37 32 24 0 128 18 172 30 47 13 52 11 26 -11z m-293
-91 c-2 -6 -10 -14 -16 -16 -7 -2 -10 2 -6 12 7 18 28 22 22 4z m430 -5 c-10
-2 -28 -2 -40 0 -13 2 -5 4 17 4 22 1 32 -1 23 -4z m412 -195 c0 -18 -12 -33
-32 -41 -22 -8 -23 2 -2 31 17 24 34 29 34 10z m-3 -64 c-3 -3 -12 -4 -19 -1
-8 3 -5 6 6 6 11 1 17 -2 13 -5z m13 -34 c0 -15 -7 -20 -25 -20 -27 0 -28 1
-19 24 9 24 44 20 44 -4z m-1542 -547 c-10 -2 -26 -2 -35 0 -10 3 -2 5 17 5
19 0 27 -2 18 -5z m1741 -7 c-9 -8 -99 -13 -99 -5 0 5 23 9 52 9 28 0 49 -2
47 -4z m-1619 -30 c0 -11 -25 -15 -122 -18 -116 -3 -155 3 -142 23 3 5 63 9
135 9 105 0 129 -3 129 -14z m-267 -66 c-6 -22 -18 -26 -28 -10 -8 13 3 30 20
30 8 0 11 -7 8 -20z"/>
<path d="M3851 1944 c11 -13 11 -18 2 -21 -26 -9 -12 -23 22 -23 24 0 35 5 35
15 0 8 -4 15 -10 15 -5 0 -9 6 -7 13 1 7 -10 13 -27 15 -27 3 -29 2 -15 -14z"/>
<path d="M3853 1883 c9 -2 23 -2 30 0 6 3 -1 5 -18 5 -16 0 -22 -2 -12 -5z"/>
<path d="M2070 1889 c-11 -8 -8 -9 14 -4 19 4 32 2 37 -7 7 -10 9 -9 9 5 0 19
-36 23 -60 6z"/>
<path d="M2784 2724 c-18 -14 -18 -15 4 -4 12 6 22 13 22 15 0 8 -5 6 -26 -11z"/>
<path d="M2520 2685 c0 -8 7 -15 15 -15 8 0 15 7 15 15 0 8 -7 15 -15 15 -8 0
-15 -7 -15 -15z"/>
<path d="M2756 2683 c-6 -14 -5 -15 5 -6 7 7 10 15 7 18 -3 3 -9 -2 -12 -12z"/>
<path d="M2320 2410 c-13 -8 -12 -10 3 -10 9 0 17 5 17 10 0 12 -1 12 -20 0z"/>
<path d="M1067 2324 c-10 -10 -8 -93 3 -179 5 -38 12 -108 16 -155 3 -47 11
-87 15 -88 5 -2 7 -8 3 -13 -3 -5 6 -9 20 -9 14 0 27 3 29 8 3 4 -1 41 -8 82
-7 41 -15 103 -18 136 -14 144 -39 238 -60 218z"/>
<path d="M1150 2258 c0 -83 32 -343 44 -350 6 -5 28 -7 48 -6 l37 2 -1 49 c0
55 -23 113 -31 80 -3 -10 -5 -3 -6 16 -1 43 -33 242 -38 237 -3 -3 7 -150 22
-313 4 -40 2 -52 -4 -38 -5 11 -10 43 -10 70 -1 28 -10 103 -21 168 -11 65
-20 120 -20 123 0 2 -4 4 -10 4 -5 0 -10 -19 -10 -42z"/>
<path d="M1427 2278 c-2 -7 -1 -22 4 -33 4 -11 8 -14 8 -7 1 6 6 12 12 12 15
0 39 26 32 34 -11 11 -51 6 -56 -6z"/>
<path d="M1301 2186 c1 -46 2 -48 11 -23 7 18 16 27 31 26 12 0 16 -3 10 -6
-23 -9 -14 -33 12 -33 14 0 25 2 25 4 0 11 -31 76 -38 77 -51 9 -52 8 -51 -45z"/>
<path d="M2026 2121 c-3 -5 1 -11 9 -15 9 -3 15 0 15 9 0 16 -16 20 -24 6z"/>
<path d="M2066 2114 c-9 -22 -8 -24 9 -24 8 0 15 6 15 14 0 22 -17 28 -24 10z"/>
<path d="M1481 2103 c5 -30 -12 -65 -27 -59 -16 6 -28 -28 -22 -65 2 -16 9
-24 21 -23 9 1 17 -4 17 -12 0 -8 5 -14 10 -14 6 0 10 -7 10 -15 0 -8 5 -15
10 -15 17 0 17 127 0 144 -5 4 -6 24 -3 42 4 23 2 34 -6 34 -7 0 -11 -8 -10
-17z"/>
<path d="M1630 2090 c0 -5 7 -7 15 -4 8 4 15 8 15 10 0 2 -7 4 -15 4 -8 0 -15
-4 -15 -10z"/>
<path d="M1350 2003 c0 -75 -8 -78 -20 -6 -7 45 -8 46 -9 11 0 -20 -5 -48 -11
-62 -9 -26 -9 -26 35 -26 38 0 45 3 45 20 0 13 5 18 15 14 12 -5 15 2 15 32 0
22 -4 34 -8 27 -5 -8 -12 -3 -20 17 -7 15 -19 31 -27 34 -12 4 -15 -7 -15 -61z"/>
<path d="M1592 2050 c0 -14 2 -19 5 -12 2 6 2 18 0 25 -3 6 -5 1 -5 -13z"/>
<path d="M1792 2032 c-12 -12 -22 -30 -22 -41 0 -17 8 -18 92 -17 57 2 93 7
95 13 3 8 -12 11 -43 10 -29 -1 -49 3 -51 10 -3 7 -10 10 -17 7 -7 -3 -17 5
-22 17 l-10 23 -22 -22z"/>
<path d="M1660 2009 c0 -23 4 -30 14 -26 10 4 13 1 9 -9 -4 -10 2 -14 21 -14
31 0 36 29 6 37 -10 3 -22 14 -25 24 -10 30 -25 22 -25 -12z"/>
<path d="M1728 1954 c-5 -4 -8 -14 -8 -22 0 -12 11 -14 61 -9 59 5 109 27 62
27 -11 0 -40 3 -64 6 -24 3 -47 2 -51 -2z"/>
<path d="M2460 1130 c0 -5 5 -10 10 -10 6 0 10 5 10 10 0 6 -4 10 -10 10 -5 0
-10 -4 -10 -10z"/>
<path d="M2500 1065 c-7 -9 -8 -15 -2 -15 5 0 12 7 16 15 3 8 4 15 2 15 -2 0
-9 -7 -16 -15z"/>
<path d="M2430 1055 c-7 -9 -8 -15 -2 -15 5 0 12 7 16 15 3 8 4 15 2 15 -2 0
-9 -7 -16 -15z"/>
<path d="M2285 1031 c-3 -6 4 -9 15 -8 11 1 20 5 20 9 0 11 -28 10 -35 -1z"/>
<path d="M2221 1021 c-8 -5 -9 -11 -3 -15 6 -3 13 -2 17 4 4 6 10 8 15 5 5 -3
11 -1 15 5 8 12 -25 13 -44 1z"/>
<path d="M806 874 c-4 -9 -4 -19 -1 -22 2 -3 7 3 11 12 4 9 4 19 1 22 -2 3 -7
-3 -11 -12z"/>
<path d="M889 753 c-9 -2 -21 -15 -27 -28 -11 -23 -9 -25 12 -25 17 0 26 7 30
26 8 30 7 32 -15 27z"/>
<path d="M874 655 c-10 -8 -14 -15 -8 -15 6 0 17 7 24 15 16 19 9 19 -16 0z"/>
<path d="M1035 659 c-4 -6 -5 -12 -2 -15 2 -3 7 2 10 11 7 17 1 20 -8 4z"/>
<path d="M898 596 c-19 -14 -23 -26 -10 -26 4 0 13 9 20 20 14 23 13 24 -10 6z"/>
<path d="M1127 493 c-12 -11 -8 -30 7 -30 8 0 11 8 8 19 -5 20 -6 21 -15 11z"/>
<path d="M880 380 c-8 -5 -11 -12 -7 -16 4 -4 15 0 24 9 18 18 8 23 -17 7z"/>
<path d="M895 340 c-3 -5 -1 -10 4 -10 6 0 11 5 11 10 0 6 -2 10 -4 10 -3 0
-8 -4 -11 -10z"/>
<path d="M931 253 c-10 -22 -9 -29 3 -42 15 -14 16 -14 16 2 0 25 1 30 11 50
7 12 6 17 -4 17 -8 0 -19 -12 -26 -27z"/>
<path d="M1036 234 c-4 -9 -4 -19 -1 -22 2 -3 7 3 11 12 4 9 4 19 1 22 -2 3
-7 -3 -11 -12z"/>
<path d="M1086 193 c-6 -14 -5 -15 5 -6 7 7 10 15 7 18 -3 3 -9 -2 -12 -12z"/>
<path d="M1378 153 c-3 -13 -1 -24 5 -26 11 -3 1 -65 -18 -109 -4 -11 -3 -18
4 -18 6 0 16 11 21 25 5 14 13 25 18 25 5 0 8 17 6 38 -3 53 -3 54 -13 47 -5
-3 -11 5 -13 17 l-3 23 -7 -22z"/>
<path d="M1022 124 c-7 -8 -9 -14 -5 -14 4 0 3 -4 -4 -8 -6 -4 -13 -21 -16
-39 -7 -42 -15 -53 -32 -46 -8 3 -15 0 -15 -6 0 -6 8 -11 18 -11 12 0 27 19
46 59 29 59 33 92 8 65z"/>
<path d="M1070 80 c0 -5 5 -10 11 -10 5 0 7 5 4 10 -3 6 -8 10 -11 10 -2 0 -4
-4 -4 -10z"/>
<path d="M1165 40 c-3 -5 -1 -10 4 -10 6 0 11 5 11 10 0 6 -2 10 -4 10 -3 0
-8 -4 -11 -10z"/>
<path d="M1565 40 c3 -5 10 -10 16 -10 5 0 9 5 9 10 0 6 -7 10 -16 10 -8 0
-12 -4 -9 -10z"/>
<path d="M1038 18 c-10 -10 -14 -18 -9 -18 10 0 36 29 30 34 -2 1 -12 -6 -21
-16z"/>
</g>
</svg>
